<svg xmlns="http://www.w3.org/2000/svg" viewBox="0 0 64 64" role="img" aria-label="Samira Saad logo">
  <!-- Background matches site dark theme -->
  <rect x="4" y="4" width="56" height="56" rx="16" fill="#020617" />

  <!-- Soft glow circle -->
  <circle cx="32" cy="32" r="20" fill="url(#glow)" />

  <!-- Stylized S monogram -->
  <path
    d="M40 22c-1.6-2.1-4.1-3.5-7.3-3.5-4.4 0-7.7 2.4-7.7 6.1 0 3.5 2.6 5.2 6.3 5.9l2.2.4c2.1.4 3.4 1.1 3.4 2.6 0 1.6-1.5 2.7-3.9 2.7-2.4 0-4.4-1-5.7-2.7l-3.2 2.5C26 40 28.9 42 32.9 42c5 0 8.4-2.6 8.4-6.8 0-3.7-2.7-5.3-6.4-6l-2.1-.4c-2-.4-3.4-1-3.4-2.5 0-1.5 1.4-2.5 3.5-2.5 2.1 0 3.7.9 4.7 2.3L40 22z"
    fill="#F9FAFB"
  />

  <defs>
    <radialGradient id="glow" cx="50%" cy="30%" r="60%">
      <stop offset="0%" stop-color="#A855F7" stop-opacity="0.9" />
      <stop offset="45%" stop-color="#F97316" stop-opacity="0.7" />
      <stop offset="100%" stop-color="#020617" stop-opacity="0" />
    </radialGradient>
  </defs>
</svg>

