<svg xmlns="http://www.w3.org/2000/svg" viewBox="0 0 64 64" role="img" aria-label="JavaScript logo">
  <rect x="8" y="8" width="48" height="48" rx="8" fill="#FACC15" />
  <path d="M28 22v18.5c0 4.9-2.8 7.1-7 7.1-2.5 0-4.4-.7-5.9-2l2.4-3.7c.9.7 1.8 1.2 3 1.2 1.4 0 2.3-.7 2.3-2.6V22h5.2z" fill="#1F2937" />
  <path d="M32.5 39.9l4.3-2.6c.8 1.5 1.8 2.3 3.4 2.3 1.4 0 2.3-.7 2.3-1.8 0-1.3-1-1.7-2.5-2.4l-.8-.3c-2.3-1-3.9-2.4-3.9-5.3 0-2.7 2.1-4.8 5.3-4.8 2.3 0 3.9.8 5.1 2.8l-4.1 2.7c-.7-1.3-1.5-1.8-2.4-1.8-1.1 0-1.8.7-1.8 1.8 0 1.2.7 1.7 2.3 2.4l.8.3c2.8 1.2 4.4 2.5 4.4 5.4 0 3.1-2.4 5-5.7 5-3.2 0-5.2-1.5-6.6-3.7z" fill="#1F2937" />
</svg>

