<svg xmlns="http://www.w3.org/2000/svg" viewBox="0 0 64 64" role="img" aria-label="Redux logo">
  <rect x="4" y="4" width="56" height="56" rx="14" fill="#020617" />
  <path
    d="M22 46c-3.8-1.9-6.3-5.8-6.3-10.3 0-6.5 5.2-11.7 11.7-11.7h2.2a4 4 0 1 1 0 4H27c-4.4 0-8 3.6-8 8 0 3 1.7 5.6 4.2 6.9-.3.9-.4 1.8-.2 2.7zM30.5 49.5c1.1.7 2.4 1.1 3.8 1.1 4.4 0 8-3.6 8-8 0-1-.2-2-.5-2.9a4 4 0 1 1 3.6-2.1c.6 1.6.9 3.3.9 5 0 6.5-5.2 11.7-11.7 11.7-2.4 0-4.7-.7-6.6-2zM19.4 26.2a4 4 0 1 1 6.4-4.7c1.5-.5 3-.8 4.7-.8 6.5 0 11.7 5.2 11.7 11.7 0 2.8-1 5.4-2.7 7.4a4 4 0 1 1-3.2-2.1c.8-1.1 1.2-2.5 1.2-3.9 0-4.4-3.6-8-8-8-1 0-1.9.2-2.8.5-1.1-1.3-2.7-2.2-4.6-2.1z"
    fill="#A855F7"
  />
</svg>

