<svg xmlns="http://www.w3.org/2000/svg" viewBox="0 0 64 64" role="img" aria-label="Tailwind CSS logo">
  <rect x="4" y="4" width="56" height="56" rx="14" fill="#020617" />
  <path
    d="M18 30c2.4-6.8 6.4-10.2 12-10.2 8.4 0 9.6 6.2 14.4 6.8 3 .4 5.4-1 7.6-4.2-2.4 6.8-6.4 10.2-12 10.2-8.4 0-9.6-6.2-14.4-6.8-3-.4-5.4 1-7.6 4.2zM14 44c2.4-6.8 6.4-10.2 12-10.2 8.4 0 9.6 6.2 14.4 6.8 3 .4 5.4-1 7.6-4.2-2.4 6.8-6.4 10.2-12 10.2-8.4 0-9.6-6.2-14.4-6.8-3-.4-5.4 1-7.6 4.2z"
    fill="#38BDF8"
  />
</svg>

