<svg xmlns="http://www.w3.org/2000/svg" viewBox="0 0 64 64" role="img" aria-label="TypeScript logo">
  <rect x="8" y="8" width="48" height="48" rx="8" fill="#3178C6" />
  <path d="M20 28v-4h24v4h-9v20h-6V28h-9z" fill="#F9FAFB" />
  <path d="M42 40c1.6 1.1 2.4 2.1 2.4 3.5 0 2.6-2.1 4.5-5.4 4.5-2.3 0-4-0.8-5.3-2.3l2.7-3c0.7 0.8 1.4 1.3 2.3 1.3 0.6 0 1-0.3 1-0.8 0-0.4-0.2-0.7-0.9-1.1l-1.6-1c-1.7-1.1-2.7-2.4-2.7-4.3 0-2.6 2-4.4 5.1-4.4 2.2 0 3.7 0.8 4.9 2.2l-2.6 2.8c-0.7-0.8-1.3-1.1-2.1-1.1-0.5 0-0.9 0.3-0.9 0.7 0 0.4 0.2 0.7 0.9 1.1l1.4 0.9z" fill="#F9FAFB" />
</svg>

